<svg width="90" height="90" viewBox="0 0 90 90" fill="none" xmlns="http://www.w3.org/2000/svg">
<g clip-path="url(#clip0_18_346)">
<path fill-rule="evenodd" clip-rule="evenodd" d="M0 0H1.1157V0.743802H0.743802V1.1157H0V0ZM2.6033 0H4.0909V0.743802H2.6033V0ZM5.5785 0H7.06612V0.743802H5.5785V0ZM8.55372 0H10.0413V0.743802H8.55372V0ZM11.5289 0H13.0165V0.743802H11.5289V0ZM14.5041 0H15.9917V0.743802H14.5041V0ZM17.4793 0H18.9669V0.743802H17.4793V0ZM20.4546 0H21.9422V0.743802H20.4546V0ZM23.4298 0H24.9174V0.743802H23.4298V0ZM26.405 0H27.8926V0.743802H26.405V0ZM29.3802 0H30.4958V1.1157H29.752V0.743802H29.3802V0ZM30.4958 2.6033V4.0909H29.752V2.6033H30.4958ZM0 4.0909V2.6033H0.743802V4.0909H0ZM30.4958 5.5785V7.06612H29.752V5.5785H30.4958ZM0 7.06612V5.57852H0.743802V7.06612H0ZM30.4958 8.55372V10.0413H29.752V8.55372H30.4958ZM0 10.0413V8.55372H0.743802V10.0413H0ZM30.4958 11.5289V13.0165H29.752V11.5289H30.4958ZM0 13.0165V11.5289H0.743802V13.0165H0ZM30.4958 14.5041V15.9917H29.752V14.5041H30.4958ZM0 15.9917V14.5041H0.743802V15.9917H0ZM30.4958 17.4793V18.9669H29.752V17.4793H30.4958ZM0 18.9669V17.4793H0.743802V18.9669H0ZM30.4958 20.4546V21.9422H29.752V20.4546H30.4958ZM0 21.9422V20.4546H0.743802V21.9422H0ZM30.4958 23.4298V24.9174H29.752V23.4298H30.4958ZM0 24.9174V23.4298H0.743802V24.9174H0ZM30.4958 26.405V27.8926H29.752V26.405H30.4958ZM0 27.8926V26.405H0.743802V27.8926H0ZM29.752 29.752V29.3802H30.4958V30.4958H29.3802V29.752H29.752ZM0 29.3802H0.743802V29.752H1.1157V30.4958H0V29.3802ZM4.0909 30.4958H2.6033V29.752H4.0909V30.4958ZM7.06612 30.4958H5.57852V29.752H7.06612V30.4958ZM10.0413 30.4958H8.55372V29.752H10.0413V30.4958ZM13.0165 30.4958H11.5289V29.752H13.0165V30.4958ZM15.9917 30.4958H14.5041V29.752H15.9917V30.4958ZM18.9669 30.4958H17.4793V29.752H18.9669V30.4958ZM21.9422 30.4958H20.4546V29.752H21.9422V30.4958ZM24.9174 30.4958H23.4298V29.752H24.9174V30.4958ZM27.8926 30.4958H26.405V29.752H27.8926V30.4958Z" fill="#0f172a"/>
<path fill-rule="evenodd" clip-rule="evenodd" d="M29.752 0H30.8678V0.743802H30.4958V1.1157H29.752V0ZM32.3554 0H33.843V0.743802H32.3554V0ZM35.3306 0H36.8182V0.743802H35.3306V0ZM38.3058 0H39.7934V0.743802H38.3058V0ZM41.281 0H42.7686V0.743802H41.281V0ZM44.2562 0H45.7438V0.743802H44.2562V0ZM47.2314 0H48.719V0.743802H47.2314V0ZM50.2066 0H51.6942V0.743802H50.2066V0ZM53.1818 0H54.6694V0.743802H53.1818V0ZM56.157 0H57.6446V0.743802H56.157V0ZM59.1322 0H60.248V1.1157H59.5042V0.743802H59.1322V0ZM60.248 2.6033V4.0909H59.5042V2.6033H60.248ZM29.752 4.0909V2.6033H30.4958V4.0909H29.752ZM60.248 5.5785V7.06612H59.5042V5.5785H60.248ZM29.752 7.06612V5.5785H30.4958V7.06612H29.752ZM60.248 8.55372V10.0413H59.5042V8.55372H60.248ZM29.752 10.0413V8.55372H30.4958V10.0413H29.752ZM60.248 11.5289V13.0165H59.5042V11.5289H60.248ZM29.752 13.0165V11.5289H30.4958V13.0165H29.752ZM60.248 14.5041V15.9917H59.5042V14.5041H60.248ZM29.752 15.9917V14.5041H30.4958V15.9917H29.752ZM60.248 17.4793V18.9669H59.5042V17.4793H60.248ZM29.752 18.9669V17.4793H30.4958V18.9669H29.752ZM60.248 20.4546V21.9422H59.5042V20.4546H60.248ZM29.752 21.9422V20.4546H30.4958V21.9422H29.752ZM60.248 23.4298V24.9174H59.5042V23.4298H60.248ZM29.752 24.9174V23.4298H30.4958V24.9174H29.752ZM60.248 26.405V27.8926H59.5042V26.405H60.248ZM29.752 27.8926V26.405H30.4958V27.8926H29.752ZM59.5042 29.752V29.3802H60.248V30.4958H59.1322V29.752H59.5042ZM29.752 29.3802H30.4958V29.752H30.8678V30.4958H29.752V29.3802ZM33.843 30.4958H32.3554V29.752H33.843V30.4958ZM36.8182 30.4958H35.3306V29.752H36.8182V30.4958ZM39.7934 30.4958H38.3058V29.752H39.7934V30.4958ZM42.7686 30.4958H41.281V29.752H42.7686V30.4958ZM45.7438 30.4958H44.2562V29.752H45.7438V30.4958ZM48.719 30.4958H47.2314V29.752H48.719V30.4958ZM51.6942 30.4958H50.2066V29.752H51.6942V30.4958ZM54.6694 30.4958H53.1818V29.752H54.6694V30.4958ZM57.6446 30.4958H56.157V29.752H57.6446V30.4958Z" fill="#0f172a"/>
<path fill-rule="evenodd" clip-rule="evenodd" d="M59.5042 0H60.6198V0.743802H60.248V1.1157H59.5042V0ZM62.1074 0H63.595V0.743802H62.1074V0ZM65.0826 0H66.5702V0.743802H65.0826V0ZM68.0578 0H69.5454V0.743802H68.0578V0ZM71.033 0H72.5206V0.743802H71.033V0ZM74.0082 0H75.4958V0.743802H74.0082V0ZM76.9834 0H78.471V0.743802H76.9834V0ZM79.9586 0H81.4462V0.743802H79.9586V0ZM82.9338 0H84.4214V0.743802H82.9338V0ZM85.909 0H87.3966V0.743802H85.909V0ZM88.8842 0H90V1.1157H89.2562V0.743802H88.8842V0ZM90 2.6033V4.0909H89.2562V2.6033H90ZM59.5042 4.0909V2.6033H60.248V4.0909H59.5042ZM90 5.5785V7.06612H89.2562V5.5785H90ZM59.5042 7.06612V5.5785H60.248V7.06612H59.5042ZM90 8.55372V10.0413H89.2562V8.55372H90ZM59.5042 10.0413V8.55372H60.248V10.0413H59.5042ZM90 11.5289V13.0165H89.2562V11.5289H90ZM59.5042 13.0165V11.5289H60.248V13.0165H59.5042ZM90 14.5041V15.9917H89.2562V14.5041H90ZM59.5042 15.9917V14.5041H60.248V15.9917H59.5042ZM90 17.4793V18.9669H89.2562V17.4793H90ZM59.5042 18.9669V17.4793H60.248V18.9669H59.5042ZM90 20.4546V21.9422H89.2562V20.4546H90ZM59.5042 21.9422V20.4546H60.248V21.9422H59.5042ZM90 23.4298V24.9174H89.2562V23.4298H90ZM59.5042 24.9174V23.4298H60.248V24.9174H59.5042ZM90 26.405V27.8926H89.2562V26.405H90ZM59.5042 27.8926V26.405H60.248V27.8926H59.5042ZM89.2562 29.752V29.3802H90V30.4958H88.8844V29.752H89.2562ZM59.5042 29.3802H60.248V29.752H60.6198V30.4958H59.5042V29.3802ZM63.595 30.4958H62.1074V29.752H63.595V30.4958ZM66.5702 30.4958H65.0826V29.752H66.5702V30.4958ZM69.5454 30.4958H68.0578V29.752H69.5454V30.4958ZM72.5206 30.4958H71.033V29.752H72.5206V30.4958ZM75.4958 30.4958H74.0082V29.752H75.4958V30.4958ZM78.471 30.4958H76.9834V29.752H78.471V30.4958ZM81.4462 30.4958H79.9586V29.752H81.4462V30.4958ZM84.4214 30.4958H82.9338V29.752H84.4214V30.4958ZM87.3966 30.4958H85.909V29.752H87.3966V30.4958Z" fill="#0f172a"/>
<path fill-rule="evenodd" clip-rule="evenodd" d="M0 29.752H1.1157V30.4958H0.743802V30.8678H0V29.752ZM2.6033 29.752H4.0909V30.4958H2.6033V29.752ZM5.57852 29.752H7.06612V30.4958H5.57852V29.752ZM8.55372 29.752H10.0413V30.4958H8.55372V29.752ZM11.5289 29.752H13.0165V30.4958H11.5289V29.752ZM14.5041 29.752H15.9917V30.4958H14.5041V29.752ZM17.4793 29.752H18.9669V30.4958H17.4793V29.752ZM20.4546 29.752H21.9422V30.4958H20.4546V29.752ZM23.4298 29.752H24.9174V30.4958H23.4298V29.752ZM26.405 29.752H27.8926V30.4958H26.405V29.752ZM29.3802 29.752H30.4958V30.8678H29.752V30.4958H29.3802V29.752ZM30.4958 32.3554V33.843H29.752V32.3554H30.4958ZM0 33.843V32.3554H0.743802V33.843H0ZM30.4958 35.3306V36.8182H29.752V35.3306H30.4958ZM0 36.8182V35.3306H0.743802V36.8182H0ZM30.4958 38.3058V39.7934H29.752V38.3058H30.4958ZM0 39.7934V38.3058H0.743802V39.7934H0ZM30.4958 41.281V42.7686H29.752V41.281H30.4958ZM0 42.7686V41.281H0.743802V42.7686H0ZM30.4958 44.2562V45.7438H29.752V44.2562H30.4958ZM0 45.7438V44.2562H0.743802V45.7438H0ZM30.4958 47.2314V48.719H29.752V47.2314H30.4958ZM0 48.719V47.2314H0.743802V48.719H0ZM30.4958 50.2066V51.6942H29.752V50.2066H30.4958ZM0 51.6942V50.2066H0.743802V51.6942H0ZM30.4958 53.1818V54.6694H29.752V53.1818H30.4958ZM0 54.6694V53.1818H0.743802V54.6694H0ZM30.4958 56.157V57.6446H29.752V56.157H30.4958ZM0 57.6446V56.157H0.743802V57.6446H0ZM29.752 59.5042V59.1322H30.4958V60.248H29.3802V59.5042H29.752ZM0 59.1322H0.743802V59.5042H1.1157V60.248H0V59.1322ZM4.0909 60.248H2.6033V59.5042H4.0909V60.248ZM7.06612 60.248H5.57852V59.5042H7.06612V60.248ZM10.0413 60.248H8.55372V59.5042H10.0413V60.248ZM13.0165 60.248H11.5289V59.5042H13.0165V60.248ZM15.9917 60.248H14.5041V59.5042H15.9917V60.248ZM18.9669 60.248H17.4793V59.5042H18.9669V60.248ZM21.9422 60.248H20.4546V59.5042H21.9422V60.248ZM24.9174 60.248H23.4298V59.5042H24.9174V60.248ZM27.8926 60.248H26.405V59.5042H27.8926V60.248Z" fill="#0f172a"/>
<path fill-rule="evenodd" clip-rule="evenodd" d="M29.752 29.752H30.8678V30.4958H30.4958V30.8678H29.752V29.752ZM32.3554 29.752H33.843V30.4958H32.3554V29.752ZM35.3306 29.752H36.8182V30.4958H35.3306V29.752ZM38.3058 29.752H39.7934V30.4958H38.3058V29.752ZM41.281 29.752H42.7686V30.4958H41.281V29.752ZM44.2562 29.752H45.7438V30.4958H44.2562V29.752ZM47.2314 29.752H48.719V30.4958H47.2314V29.752ZM50.2066 29.752H51.6942V30.4958H50.2066V29.752ZM53.1818 29.752H54.6694V30.4958H53.1818V29.752ZM56.157 29.752H57.6446V30.4958H56.157V29.752ZM59.1322 29.752H60.248V30.8678H59.5042V30.4958H59.1322V29.752ZM60.248 32.3554V33.843H59.5042V32.3554H60.248ZM29.752 33.843V32.3554H30.4958V33.843H29.752ZM60.248 35.3306V36.8182H59.5042V35.3306H60.248ZM29.752 36.8182V35.3306H30.4958V36.8182H29.752ZM60.248 38.3058V39.7934H59.5042V38.3058H60.248ZM29.752 39.7934V38.3058H30.4958V39.7934H29.752ZM60.248 41.281V42.7686H59.5042V41.281H60.248ZM29.752 42.7686V41.281H30.4958V42.7686H29.752ZM60.248 44.2562V45.7438H59.5042V44.2562H60.248ZM29.752 45.7438V44.2562H30.4958V45.7438H29.752ZM60.248 47.2314V48.719H59.5042V47.2314H60.248ZM29.752 48.719V47.2314H30.4958V48.719H29.752ZM60.248 50.2066V51.6942H59.5042V50.2066H60.248ZM29.752 51.6942V50.2066H30.4958V51.6942H29.752ZM60.248 53.1818V54.6694H59.5042V53.1818H60.248ZM29.752 54.6694V53.1818H30.4958V54.6694H29.752ZM60.248 56.157V57.6446H59.5042V56.157H60.248ZM29.752 57.6446V56.157H30.4958V57.6446H29.752ZM59.5042 59.5042V59.1322H60.248V60.248H59.1322V59.5042H59.5042ZM29.752 59.1322H30.4958V59.5042H30.8678V60.248H29.752V59.1322ZM33.843 60.248H32.3554V59.5042H33.843V60.248ZM36.8182 60.248H35.3306V59.5042H36.8182V60.248ZM39.7934 60.248H38.3058V59.5042H39.7934V60.248ZM42.7686 60.248H41.281V59.5042H42.7686V60.248ZM45.7438 60.248H44.2562V59.5042H45.7438V60.248ZM48.719 60.248H47.2314V59.5042H48.719V60.248ZM51.6942 60.248H50.2066V59.5042H51.6942V60.248ZM54.6694 60.248H53.1818V59.5042H54.6694V60.248ZM57.6446 60.248H56.157V59.5042H57.6446V60.248Z" fill="#0f172a"/>
<path fill-rule="evenodd" clip-rule="evenodd" d="M59.5042 29.752H60.6198V30.4958H60.248V30.8678H59.5042V29.752ZM62.1074 29.752H63.595V30.4958H62.1074V29.752ZM65.0826 29.752H66.5702V30.4958H65.0826V29.752ZM68.0578 29.752H69.5454V30.4958H68.0578V29.752ZM71.033 29.752H72.5206V30.4958H71.033V29.752ZM74.0082 29.752H75.4958V30.4958H74.0082V29.752ZM76.9834 29.752H78.471V30.4958H76.9834V29.752ZM79.9586 29.752H81.4462V30.4958H79.9586V29.752ZM82.9338 29.752H84.4214V30.4958H82.9338V29.752ZM85.909 29.752H87.3966V30.4958H85.909V29.752ZM88.8844 29.752H90V30.8678H89.2562V30.4958H88.8844V29.752ZM90 32.3554V33.843H89.2562V32.3554H90ZM59.5042 33.843V32.3554H60.248V33.843H59.5042ZM90 35.3306V36.8182H89.2562V35.3306H90ZM59.5042 36.8182V35.3306H60.248V36.8182H59.5042ZM90 38.3058V39.7934H89.2562V38.3058H90ZM59.5042 39.7934V38.3058H60.248V39.7934H59.5042ZM90 41.281V42.7686H89.2562V41.281H90ZM59.5042 42.7686V41.281H60.248V42.7686H59.5042ZM90 44.2562V45.7438H89.2562V44.2562H90ZM59.5042 45.7438V44.2562H60.248V45.7438H59.5042ZM90 47.2314V48.719H89.2562V47.2314H90ZM59.5042 48.719V47.2314H60.248V48.719H59.5042ZM90 50.2066V51.6942H89.2562V50.2066H90ZM59.5042 51.6942V50.2066H60.248V51.6942H59.5042ZM90 53.1818V54.6694H89.2562V53.1818H90ZM59.5042 54.6694V53.1818H60.248V54.6694H59.5042ZM90 56.157V57.6446H89.2562V56.157H90ZM59.5042 57.6446V56.157H60.248V57.6446H59.5042ZM89.2562 59.5042V59.1322H90V60.248H88.8844V59.5042H89.2562ZM59.5042 59.1322H60.248V59.5042H60.6198V60.248H59.5042V59.1322ZM63.595 60.248H62.1074V59.5042H63.595V60.248ZM66.5702 60.248H65.0826V59.5042H66.5702V60.248ZM69.5454 60.248H68.0578V59.5042H69.5454V60.248ZM72.5206 60.248H71.033V59.5042H72.5206V60.248ZM75.4958 60.248H74.0082V59.5042H75.4958V60.248ZM78.471 60.248H76.9834V59.5042H78.471V60.248ZM81.4462 60.248H79.9586V59.5042H81.4462V60.248ZM84.4214 60.248H82.9338V59.5042H84.4214V60.248ZM87.3966 60.248H85.909V59.5042H87.3966V60.248Z" fill="#0f172a"/>
<path fill-rule="evenodd" clip-rule="evenodd" d="M0 59.5042H1.1157V60.248H0.743802V60.6198H0V59.5042ZM2.6033 59.5042H4.0909V60.248H2.6033V59.5042ZM5.57852 59.5042H7.06612V60.248H5.57852V59.5042ZM8.55372 59.5042H10.0413V60.248H8.55372V59.5042ZM11.5289 59.5042H13.0165V60.248H11.5289V59.5042ZM14.5041 59.5042H15.9917V60.248H14.5041V59.5042ZM17.4793 59.5042H18.9669V60.248H17.4793V59.5042ZM20.4546 59.5042H21.9422V60.248H20.4546V59.5042ZM23.4298 59.5042H24.9174V60.248H23.4298V59.5042ZM26.405 59.5042H27.8926V60.248H26.405V59.5042ZM29.3802 59.5042H30.4958V60.6198H29.752V60.248H29.3802V59.5042ZM30.4958 62.1074V63.595H29.752V62.1074H30.4958ZM0 63.595V62.1074H0.743802V63.595H0ZM30.4958 65.0826V66.5702H29.752V65.0826H30.4958ZM0 66.5702V65.0826H0.743802V66.5702H0ZM30.4958 68.0578V69.5454H29.752V68.0578H30.4958ZM0 69.5454V68.0578H0.743802V69.5454H0ZM30.4958 71.033V72.5206H29.752V71.033H30.4958ZM0 72.5206V71.033H0.743802V72.5206H0ZM30.4958 74.0082V75.4958H29.752V74.0082H30.4958ZM0 75.4958V74.0082H0.743802V75.4958H0ZM30.4958 76.9834V78.471H29.752V76.9834H30.4958ZM0 78.471V76.9834H0.743802V78.471H0ZM30.4958 79.9586V81.4462H29.752V79.9586H30.4958ZM0 81.4462V79.9586H0.743802V81.4462H0ZM30.4958 82.9338V84.4214H29.752V82.9338H30.4958ZM0 84.4214V82.9338H0.743802V84.4214H0ZM30.4958 85.909V87.3966H29.752V85.909H30.4958ZM0 87.3966V85.909H0.743802V87.3966H0ZM29.752 89.2562V88.8842H30.4958V90H29.3802V89.2562H29.752ZM0 88.8844H0.743802V89.2562H1.1157V90H0V88.8844ZM4.0909 90H2.6033V89.2562H4.0909V90ZM7.06612 90H5.57852V89.2562H7.06612V90ZM10.0413 90H8.55372V89.2562H10.0413V90ZM13.0165 90H11.5289V89.2562H13.0165V90ZM15.9917 90H14.5041V89.2562H15.9917V90ZM18.9669 90H17.4793V89.2562H18.9669V90ZM21.9422 90H20.4546V89.2562H21.9422V90ZM24.9174 90H23.4298V89.2562H24.9174V90ZM27.8926 90H26.405V89.2562H27.8926V90Z" fill="#0f172a"/>
<path fill-rule="evenodd" clip-rule="evenodd" d="M29.752 59.5042H30.8678V60.248H30.4958V60.6198H29.752V59.5042ZM32.3554 59.5042H33.843V60.248H32.3554V59.5042ZM35.3306 59.5042H36.8182V60.248H35.3306V59.5042ZM38.3058 59.5042H39.7934V60.248H38.3058V59.5042ZM41.281 59.5042H42.7686V60.248H41.281V59.5042ZM44.2562 59.5042H45.7438V60.248H44.2562V59.5042ZM47.2314 59.5042H48.719V60.248H47.2314V59.5042ZM50.2066 59.5042H51.6942V60.248H50.2066V59.5042ZM53.1818 59.5042H54.6694V60.248H53.1818V59.5042ZM56.157 59.5042H57.6446V60.248H56.157V59.5042ZM59.1322 59.5042H60.248V60.6198H59.5042V60.248H59.1322V59.5042ZM60.248 62.1074V63.595H59.5042V62.1074H60.248ZM29.752 63.595V62.1074H30.4958V63.595H29.752ZM60.248 65.0826V66.5702H59.5042V65.0826H60.248ZM29.752 66.5702V65.0826H30.4958V66.5702H29.752ZM60.248 68.0578V69.5454H59.5042V68.0578H60.248ZM29.752 69.5454V68.0578H30.4958V69.5454H29.752ZM60.248 71.033V72.5206H59.5042V71.033H60.248ZM29.752 72.5206V71.033H30.4958V72.5206H29.752ZM60.248 74.0082V75.4958H59.5042V74.0082H60.248ZM29.752 75.4958V74.0082H30.4958V75.4958H29.752ZM60.248 76.9834V78.471H59.5042V76.9834H60.248ZM29.752 78.471V76.9834H30.4958V78.471H29.752ZM60.248 79.9586V81.4462H59.5042V79.9586H60.248ZM29.752 81.4462V79.9586H30.4958V81.4462H29.752ZM60.248 82.9338V84.4214H59.5042V82.9338H60.248ZM29.752 84.4214V82.9338H30.4958V84.4214H29.752ZM60.248 85.909V87.3966H59.5042V85.909H60.248ZM29.752 87.3966V85.909H30.4958V87.3966H29.752ZM59.5042 89.2562V88.8842H60.248V90H59.1322V89.2562H59.5042ZM29.752 88.8842H30.4958V89.2562H30.8678V90H29.752V88.8842ZM33.843 90H32.3554V89.2562H33.843V90ZM36.8182 90H35.3306V89.2562H36.8182V90ZM39.7934 90H38.3058V89.2562H39.7934V90ZM42.7686 90H41.281V89.2562H42.7686V90ZM45.7438 90H44.2562V89.2562H45.7438V90ZM48.719 90H47.2314V89.2562H48.719V90ZM51.6942 90H50.2066V89.2562H51.6942V90ZM54.6694 90H53.1818V89.2562H54.6694V90ZM57.6446 90H56.157V89.2562H57.6446V90Z" fill="#0f172a"/>
<path fill-rule="evenodd" clip-rule="evenodd" d="M59.5042 59.5042H60.6198V60.248H60.248V60.6198H59.5042V59.5042ZM62.1074 59.5042H63.595V60.248H62.1074V59.5042ZM65.0826 59.5042H66.5702V60.248H65.0826V59.5042ZM68.0578 59.5042H69.5454V60.248H68.0578V59.5042ZM71.033 59.5042H72.5206V60.248H71.033V59.5042ZM74.0082 59.5042H75.4958V60.248H74.0082V59.5042ZM76.9834 59.5042H78.471V60.248H76.9834V59.5042ZM79.9586 59.5042H81.4462V60.248H79.9586V59.5042ZM82.9338 59.5042H84.4214V60.248H82.9338V59.5042ZM85.909 59.5042H87.3966V60.248H85.909V59.5042ZM88.8844 59.5042H90V60.6198H89.2562V60.248H88.8844V59.5042ZM90 62.1074V63.595H89.2562V62.1074H90ZM59.5042 63.595V62.1074H60.248V63.595H59.5042ZM90 65.0826V66.5702H89.2562V65.0826H90ZM59.5042 66.5702V65.0826H60.248V66.5702H59.5042ZM90 68.0578V69.5454H89.2562V68.0578H90ZM59.5042 69.5454V68.0578H60.248V69.5454H59.5042ZM90 71.033V72.5206H89.2562V71.033H90ZM59.5042 72.5206V71.033H60.248V72.5206H59.5042ZM90 74.0082V75.4958H89.2562V74.0082H90ZM59.5042 75.4958V74.0082H60.248V75.4958H59.5042ZM90 76.9834V78.471H89.2562V76.9834H90ZM59.5042 78.471V76.9834H60.248V78.471H59.5042ZM90 79.9586V81.4462H89.2562V79.9586H90ZM59.5042 81.4462V79.9586H60.248V81.4462H59.5042ZM90 82.9338V84.4214H89.2562V82.9338H90ZM59.5042 84.4214V82.9338H60.248V84.4214H59.5042ZM90 85.909V87.3966H89.2562V85.909H90ZM59.5042 87.3966V85.909H60.248V87.3966H59.5042ZM89.2562 89.2562V88.8842H90V90H88.8844V89.2562H89.2562ZM59.5042 88.8842H60.248V89.2562H60.6198V90H59.5042V88.8842ZM63.595 90H62.1074V89.2562H63.595V90ZM66.5702 90H65.0826V89.2562H66.5702V90ZM69.5454 90H68.0578V89.2562H69.5454V90ZM72.5206 90H71.033V89.2562H72.5206V90ZM75.4958 90H74.0082V89.2562H75.4958V90ZM78.471 90H76.9834V89.2562H78.471V90ZM81.4462 90H79.9586V89.2562H81.4462V90ZM84.4214 90H82.9338V89.2562H84.4214V90ZM87.3966 90H85.909V89.2562H87.3966V90Z" fill="#0f172a"/>
</g>
<defs>
<clipPath id="clip0_18_346">
<rect width="90" height="90" fill="white"/>
</clipPath>
</defs>
</svg>
