<svg width="90" height="90" viewBox="0 0 45 45" fill="none" xmlns="http://www.w3.org/2000/svg">
<path fill-rule="evenodd" clip-rule="evenodd" d="M0 0H0.557849V0.371901H0.371901V0.557851H0V0ZM1.30165 0H2.04545V0.371901H1.30165V0ZM2.78925 0H3.53306V0.371901H2.78925V0ZM4.27686 0H5.02066V0.371901H4.27686V0ZM5.76446 0H6.50826V0.371901H5.76446V0ZM7.25207 0H7.99587V0.371901H7.25207V0ZM8.73967 0H9.48347V0.371901H8.73967V0ZM10.2273 0H10.9711V0.371901H10.2273V0ZM11.7149 0H12.4587V0.371901H11.7149V0ZM13.2025 0H13.9463V0.371901H13.2025V0ZM14.6901 0H15.2479V0.557849H14.876V0.371901H14.6901V0ZM15.2479 1.30165V2.04545H14.876V1.30165H15.2479ZM0 2.04545V1.30165H0.371901V2.04545H0ZM15.2479 2.78925V3.53306H14.876V2.78925H15.2479ZM0 3.53306V2.78926H0.371901V3.53306H0ZM15.2479 4.27686V5.02066H14.876V4.27686H15.2479ZM0 5.02066V4.27686H0.371901V5.02066H0ZM15.2479 5.76446V6.50826H14.876V5.76446H15.2479ZM0 6.50826V5.76446H0.371901V6.50826H0ZM15.2479 7.25207V7.99587H14.876V7.25207H15.2479ZM0 7.99587V7.25207H0.371901V7.99587H0ZM15.2479 8.73967V9.48347H14.876V8.73967H15.2479ZM0 9.48347V8.73967H0.371901V9.48347H0ZM15.2479 10.2273V10.9711H14.876V10.2273H15.2479ZM0 10.9711V10.2273H0.371901V10.9711H0ZM15.2479 11.7149V12.4587H14.876V11.7149H15.2479ZM0 12.4587V11.7149H0.371901V12.4587H0ZM15.2479 13.2025V13.9463H14.876V13.2025H15.2479ZM0 13.9463V13.2025H0.371901V13.9463H0ZM14.876 14.876V14.6901H15.2479V15.2479H14.6901V14.876H14.876ZM0 14.6901H0.371901V14.876H0.557851V15.2479H0V14.6901ZM2.04545 15.2479H1.30165V14.876H2.04545V15.2479ZM3.53306 15.2479H2.78926V14.876H3.53306V15.2479ZM5.02066 15.2479H4.27686V14.876H5.02066V15.2479ZM6.50826 15.2479H5.76446V14.876H6.50826V15.2479ZM7.99587 15.2479H7.25207V14.876H7.99587V15.2479ZM9.48347 15.2479H8.73967V14.876H9.48347V15.2479ZM10.9711 15.2479H10.2273V14.876H10.9711V15.2479ZM12.4587 15.2479H11.7149V14.876H12.4587V15.2479ZM13.9463 15.2479H13.2025V14.876H13.9463V15.2479Z" fill="#D5E0EA"/>
<path fill-rule="evenodd" clip-rule="evenodd" d="M14.876 0H15.4339V0.371901H15.2479L15.2479 0.557849H14.876V0ZM16.1777 0H16.9215V0.371901H16.1777V0ZM17.6653 0H18.4091V0.371901H17.6653V0ZM19.1529 0H19.8967V0.371901H19.1529V0ZM20.6405 0H21.3843V0.371901H20.6405V0ZM22.1281 0H22.8719V0.371901H22.1281V0ZM23.6157 0H24.3595V0.371901H23.6157V0ZM25.1033 0H25.8471V0.371901H25.1033V0ZM26.5909 0H27.3347V0.371901H26.5909V0ZM28.0785 0H28.8223V0.371901H28.0785V0ZM29.5661 0H30.124V0.557849H29.7521V0.371901H29.5661V0ZM30.124 1.30165V2.04545H29.7521V1.30165H30.124ZM14.876 2.04545V1.30165H15.2479V2.04545H14.876ZM30.124 2.78925V3.53306H29.7521V2.78925H30.124ZM14.876 3.53306V2.78925H15.2479V3.53306H14.876ZM30.124 4.27686V5.02066H29.7521V4.27686H30.124ZM14.876 5.02066V4.27686H15.2479V5.02066H14.876ZM30.124 5.76446V6.50826H29.7521V5.76446H30.124ZM14.876 6.50826V5.76446H15.2479V6.50826H14.876ZM30.124 7.25207V7.99587H29.7521V7.25207H30.124ZM14.876 7.99587V7.25207H15.2479V7.99587H14.876ZM30.124 8.73967V9.48347H29.7521V8.73967H30.124ZM14.876 9.48347V8.73967H15.2479V9.48347H14.876ZM30.124 10.2273V10.9711H29.7521V10.2273H30.124ZM14.876 10.9711V10.2273H15.2479V10.9711H14.876ZM30.124 11.7149V12.4587H29.7521V11.7149H30.124ZM14.876 12.4587V11.7149H15.2479V12.4587H14.876ZM30.124 13.2025V13.9463H29.7521V13.2025H30.124ZM14.876 13.9463V13.2025H15.2479V13.9463H14.876ZM29.7521 14.876V14.6901H30.124V15.2479H29.5661V14.876H29.7521ZM14.876 14.6901H15.2479L15.2479 14.876H15.4339V15.2479H14.876V14.6901ZM16.9215 15.2479H16.1777V14.876H16.9215V15.2479ZM18.4091 15.2479H17.6653V14.876H18.4091V15.2479ZM19.8967 15.2479H19.1529V14.876H19.8967V15.2479ZM21.3843 15.2479H20.6405V14.876H21.3843V15.2479ZM22.8719 15.2479H22.1281V14.876H22.8719V15.2479ZM24.3595 15.2479H23.6157V14.876H24.3595V15.2479ZM25.8471 15.2479H25.1033V14.876H25.8471V15.2479ZM27.3347 15.2479H26.5909V14.876H27.3347V15.2479ZM28.8223 15.2479H28.0785V14.876H28.8223V15.2479Z" fill="#DFEAF3"/>
<path fill-rule="evenodd" clip-rule="evenodd" d="M29.7521 0H30.3099V0.371901H30.124V0.557849H29.7521V0ZM31.0537 0H31.7975V0.371901H31.0537V0ZM32.5413 0H33.2851V0.371901H32.5413V0ZM34.0289 0H34.7727V0.371901H34.0289V0ZM35.5165 0H36.2603V0.371901H35.5165V0ZM37.0041 0H37.7479V0.371901H37.0041V0ZM38.4917 0H39.2355V0.371901H38.4917V0ZM39.9793 0H40.7231V0.371901H39.9793V0ZM41.4669 0H42.2107V0.371901H41.4669V0ZM42.9545 0H43.6983V0.371901H42.9545V0ZM44.4421 0H45V0.557849H44.6281V0.371901H44.4421V0ZM45 1.30165V2.04545H44.6281V1.30165H45ZM29.7521 2.04545V1.30165H30.124V2.04545H29.7521ZM45 2.78925V3.53306H44.6281V2.78925H45ZM29.7521 3.53306V2.78925H30.124V3.53306H29.7521ZM45 4.27686V5.02066H44.6281V4.27686H45ZM29.7521 5.02066V4.27686H30.124V5.02066H29.7521ZM45 5.76446V6.50826H44.6281V5.76446H45ZM29.7521 6.50826V5.76446H30.124V6.50826H29.7521ZM45 7.25207V7.99587H44.6281V7.25207H45ZM29.7521 7.99587V7.25207H30.124V7.99587H29.7521ZM45 8.73967V9.48347H44.6281V8.73967H45ZM29.7521 9.48347V8.73967H30.124V9.48347H29.7521ZM45 10.2273V10.9711H44.6281V10.2273H45ZM29.7521 10.9711V10.2273H30.124V10.9711H29.7521ZM45 11.7149V12.4587H44.6281V11.7149H45ZM29.7521 12.4587V11.7149H30.124V12.4587H29.7521ZM45 13.2025V13.9463H44.6281V13.2025H45ZM29.7521 13.9463V13.2025H30.124V13.9463H29.7521ZM44.6281 14.876V14.6901H45V15.2479H44.4422V14.876H44.6281ZM29.7521 14.6901H30.124V14.876H30.3099V15.2479H29.7521V14.6901ZM31.7975 15.2479H31.0537V14.876H31.7975V15.2479ZM33.2851 15.2479H32.5413V14.876H33.2851V15.2479ZM34.7727 15.2479H34.0289V14.876H34.7727V15.2479ZM36.2603 15.2479H35.5165V14.876H36.2603V15.2479ZM37.7479 15.2479H37.0041V14.876H37.7479V15.2479ZM39.2355 15.2479H38.4917V14.876H39.2355V15.2479ZM40.7231 15.2479H39.9793V14.876H40.7231V15.2479ZM42.2107 15.2479H41.4669V14.876H42.2107V15.2479ZM43.6983 15.2479H42.9545V14.876H43.6983V15.2479Z" fill="#DFEAF3"/>
<path fill-rule="evenodd" clip-rule="evenodd" d="M0 14.876H0.557851V15.2479L0.371901 15.2479V15.4339H0V14.876ZM1.30165 14.876H2.04545V15.2479H1.30165V14.876ZM2.78926 14.876H3.53306V15.2479H2.78926V14.876ZM4.27686 14.876H5.02066V15.2479H4.27686V14.876ZM5.76446 14.876H6.50826V15.2479H5.76446V14.876ZM7.25207 14.876H7.99587V15.2479H7.25207V14.876ZM8.73967 14.876H9.48347V15.2479H8.73967V14.876ZM10.2273 14.876H10.9711V15.2479H10.2273V14.876ZM11.7149 14.876H12.4587V15.2479H11.7149V14.876ZM13.2025 14.876H13.9463V15.2479H13.2025V14.876ZM14.6901 14.876H15.2479L15.2479 15.4339H14.876V15.2479H14.6901V14.876ZM15.2479 16.1777V16.9215H14.876V16.1777H15.2479ZM0 16.9215V16.1777H0.371901V16.9215H0ZM15.2479 17.6653V18.4091H14.876V17.6653H15.2479ZM0 18.4091V17.6653H0.371901V18.4091H0ZM15.2479 19.1529V19.8967H14.876V19.1529H15.2479ZM0 19.8967V19.1529H0.371901V19.8967H0ZM15.2479 20.6405V21.3843H14.876V20.6405H15.2479ZM0 21.3843V20.6405H0.371901V21.3843H0ZM15.2479 22.1281V22.8719H14.876V22.1281H15.2479ZM0 22.8719V22.1281H0.371901V22.8719H0ZM15.2479 23.6157V24.3595H14.876V23.6157H15.2479ZM0 24.3595V23.6157H0.371901V24.3595H0ZM15.2479 25.1033V25.8471H14.876V25.1033H15.2479ZM0 25.8471V25.1033H0.371901V25.8471H0ZM15.2479 26.5909V27.3347H14.876V26.5909H15.2479ZM0 27.3347V26.5909H0.371901V27.3347H0ZM15.2479 28.0785V28.8223H14.876V28.0785H15.2479ZM0 28.8223V28.0785H0.371901V28.8223H0ZM14.876 29.7521V29.5661H15.2479V30.124H14.6901V29.7521H14.876ZM0 29.5661H0.371901V29.7521H0.557851V30.124H0V29.5661ZM2.04545 30.124H1.30165V29.7521H2.04545V30.124ZM3.53306 30.124H2.78926V29.7521H3.53306V30.124ZM5.02066 30.124H4.27686V29.7521H5.02066V30.124ZM6.50826 30.124H5.76446V29.7521H6.50826V30.124ZM7.99587 30.124H7.25207V29.7521H7.99587V30.124ZM9.48347 30.124H8.73967V29.7521H9.48347V30.124ZM10.9711 30.124H10.2273V29.7521H10.9711V30.124ZM12.4587 30.124H11.7149V29.7521H12.4587V30.124ZM13.9463 30.124H13.2025V29.7521H13.9463V30.124Z" fill="#DFEAF3"/>
<path fill-rule="evenodd" clip-rule="evenodd" d="M14.876 14.876H15.4339V15.2479H15.2479V15.4339H14.876V14.876ZM16.1777 14.876H16.9215V15.2479H16.1777V14.876ZM17.6653 14.876H18.4091V15.2479H17.6653V14.876ZM19.1529 14.876H19.8967V15.2479H19.1529V14.876ZM20.6405 14.876H21.3843V15.2479H20.6405V14.876ZM22.1281 14.876H22.8719V15.2479H22.1281V14.876ZM23.6157 14.876H24.3595V15.2479H23.6157V14.876ZM25.1033 14.876H25.8471V15.2479H25.1033V14.876ZM26.5909 14.876H27.3347V15.2479H26.5909V14.876ZM28.0785 14.876H28.8223V15.2479H28.0785V14.876ZM29.5661 14.876H30.124V15.4339H29.7521V15.2479H29.5661V14.876ZM30.124 16.1777V16.9215H29.7521V16.1777H30.124ZM14.876 16.9215V16.1777H15.2479V16.9215H14.876ZM30.124 17.6653V18.4091H29.7521V17.6653H30.124ZM14.876 18.4091V17.6653H15.2479V18.4091H14.876ZM30.124 19.1529V19.8967H29.7521V19.1529H30.124ZM14.876 19.8967V19.1529H15.2479V19.8967H14.876ZM30.124 20.6405V21.3843H29.7521V20.6405H30.124ZM14.876 21.3843V20.6405H15.2479V21.3843H14.876ZM30.124 22.1281V22.8719H29.7521V22.1281H30.124ZM14.876 22.8719V22.1281H15.2479V22.8719H14.876ZM30.124 23.6157V24.3595H29.7521V23.6157H30.124ZM14.876 24.3595V23.6157H15.2479V24.3595H14.876ZM30.124 25.1033V25.8471H29.7521V25.1033H30.124ZM14.876 25.8471V25.1033H15.2479V25.8471H14.876ZM30.124 26.5909V27.3347H29.7521V26.5909H30.124ZM14.876 27.3347V26.5909H15.2479V27.3347H14.876ZM30.124 28.0785V28.8223H29.7521V28.0785H30.124ZM14.876 28.8223V28.0785H15.2479V28.8223H14.876ZM29.7521 29.7521V29.5661H30.124V30.124H29.5661V29.7521H29.7521ZM14.876 29.5661H15.2479L15.2479 29.7521H15.4339V30.124H14.876V29.5661ZM16.9215 30.124H16.1777V29.7521H16.9215V30.124ZM18.4091 30.124H17.6653V29.7521H18.4091V30.124ZM19.8967 30.124H19.1529V29.7521H19.8967V30.124ZM21.3843 30.124H20.6405V29.7521H21.3843V30.124ZM22.8719 30.124H22.1281V29.7521H22.8719V30.124ZM24.3595 30.124H23.6157V29.7521H24.3595V30.124ZM25.8471 30.124H25.1033V29.7521H25.8471V30.124ZM27.3347 30.124H26.5909V29.7521H27.3347V30.124ZM28.8223 30.124H28.0785V29.7521H28.8223V30.124Z" fill="#DFEAF3"/>
<path fill-rule="evenodd" clip-rule="evenodd" d="M29.7521 14.876H30.3099V15.2479H30.124V15.4339H29.7521V14.876ZM31.0537 14.876H31.7975V15.2479H31.0537V14.876ZM32.5413 14.876H33.2851V15.2479H32.5413V14.876ZM34.0289 14.876H34.7727V15.2479H34.0289V14.876ZM35.5165 14.876H36.2603V15.2479H35.5165V14.876ZM37.0041 14.876H37.7479V15.2479H37.0041V14.876ZM38.4917 14.876H39.2355V15.2479H38.4917V14.876ZM39.9793 14.876H40.7231V15.2479H39.9793V14.876ZM41.4669 14.876H42.2107V15.2479H41.4669V14.876ZM42.9545 14.876H43.6983V15.2479H42.9545V14.876ZM44.4422 14.876H45V15.4339H44.6281V15.2479L44.4422 15.2479V14.876ZM45 16.1777V16.9215H44.6281V16.1777H45ZM29.7521 16.9215V16.1777H30.124V16.9215H29.7521ZM45 17.6653V18.4091H44.6281V17.6653H45ZM29.7521 18.4091V17.6653H30.124V18.4091H29.7521ZM45 19.1529V19.8967H44.6281V19.1529H45ZM29.7521 19.8967V19.1529H30.124V19.8967H29.7521ZM45 20.6405V21.3843H44.6281V20.6405H45ZM29.7521 21.3843V20.6405H30.124V21.3843H29.7521ZM45 22.1281V22.8719H44.6281V22.1281H45ZM29.7521 22.8719V22.1281H30.124V22.8719H29.7521ZM45 23.6157V24.3595H44.6281V23.6157H45ZM29.7521 24.3595V23.6157H30.124V24.3595H29.7521ZM45 25.1033V25.8471H44.6281V25.1033H45ZM29.7521 25.8471V25.1033H30.124V25.8471H29.7521ZM45 26.5909V27.3347H44.6281V26.5909H45ZM29.7521 27.3347V26.5909H30.124V27.3347H29.7521ZM45 28.0785V28.8223H44.6281V28.0785H45ZM29.7521 28.8223V28.0785H30.124V28.8223H29.7521ZM44.6281 29.7521V29.5661H45V30.124H44.4422V29.7521H44.6281ZM29.7521 29.5661H30.124V29.7521H30.3099V30.124H29.7521V29.5661ZM31.7975 30.124H31.0537V29.7521H31.7975V30.124ZM33.2851 30.124H32.5413V29.7521H33.2851V30.124ZM34.7727 30.124H34.0289V29.7521H34.7727V30.124ZM36.2603 30.124H35.5165V29.7521H36.2603V30.124ZM37.7479 30.124H37.0041V29.7521H37.7479V30.124ZM39.2355 30.124H38.4917V29.7521H39.2355V30.124ZM40.7231 30.124H39.9793V29.7521H40.7231V30.124ZM42.2107 30.124H41.4669V29.7521H42.2107V30.124ZM43.6983 30.124H42.9545V29.7521H43.6983V30.124Z" fill="#DFEAF3"/>
<path fill-rule="evenodd" clip-rule="evenodd" d="M0 29.7521H0.557851V30.124H0.371901V30.3099H0V29.7521ZM1.30165 29.7521H2.04545V30.124H1.30165V29.7521ZM2.78926 29.7521H3.53306V30.124H2.78926V29.7521ZM4.27686 29.7521H5.02066V30.124H4.27686V29.7521ZM5.76446 29.7521H6.50826V30.124H5.76446V29.7521ZM7.25207 29.7521H7.99587V30.124H7.25207V29.7521ZM8.73967 29.7521H9.48347V30.124H8.73967V29.7521ZM10.2273 29.7521H10.9711V30.124H10.2273V29.7521ZM11.7149 29.7521H12.4587V30.124H11.7149V29.7521ZM13.2025 29.7521H13.9463V30.124H13.2025V29.7521ZM14.6901 29.7521H15.2479L15.2479 30.3099H14.876V30.124H14.6901V29.7521ZM15.2479 31.0537V31.7975H14.876V31.0537H15.2479ZM0 31.7975V31.0537H0.371901V31.7975H0ZM15.2479 32.5413V33.2851H14.876V32.5413H15.2479ZM0 33.2851V32.5413H0.371901V33.2851H0ZM15.2479 34.0289V34.7727H14.876V34.0289H15.2479ZM0 34.7727V34.0289H0.371901V34.7727H0ZM15.2479 35.5165V36.2603H14.876V35.5165H15.2479ZM0 36.2603V35.5165H0.371901V36.2603H0ZM15.2479 37.0041V37.7479H14.876V37.0041H15.2479ZM0 37.7479V37.0041H0.371901V37.7479H0ZM15.2479 38.4917V39.2355H14.876V38.4917H15.2479ZM0 39.2355V38.4917H0.371901V39.2355H0ZM15.2479 39.9793V40.7231H14.876V39.9793H15.2479ZM0 40.7231V39.9793H0.371901V40.7231H0ZM15.2479 41.4669V42.2107H14.876V41.4669H15.2479ZM0 42.2107V41.4669H0.371901V42.2107H0ZM15.2479 42.9545V43.6983H14.876V42.9545H15.2479ZM0 43.6983V42.9545H0.371901V43.6983H0ZM14.876 44.6281V44.4421H15.2479V45H14.6901V44.6281H14.876ZM0 44.4422H0.371901V44.6281H0.557851V45H0V44.4422ZM2.04545 45H1.30165V44.6281H2.04545V45ZM3.53306 45H2.78926V44.6281H3.53306V45ZM5.02066 45H4.27686V44.6281H5.02066V45ZM6.50826 45H5.76446V44.6281H6.50826V45ZM7.99587 45H7.25207V44.6281H7.99587V45ZM9.48347 45H8.73967V44.6281H9.48347V45ZM10.9711 45H10.2273V44.6281H10.9711V45ZM12.4587 45H11.7149V44.6281H12.4587V45ZM13.9463 45H13.2025V44.6281H13.9463V45Z" fill="#DFEAF3"/>
<path fill-rule="evenodd" clip-rule="evenodd" d="M14.876 29.7521H15.4339V30.124H15.2479V30.3099H14.876V29.7521ZM16.1777 29.7521H16.9215V30.124H16.1777V29.7521ZM17.6653 29.7521H18.4091V30.124H17.6653V29.7521ZM19.1529 29.7521H19.8967V30.124H19.1529V29.7521ZM20.6405 29.7521H21.3843V30.124H20.6405V29.7521ZM22.1281 29.7521H22.8719V30.124H22.1281V29.7521ZM23.6157 29.7521H24.3595V30.124H23.6157V29.7521ZM25.1033 29.7521H25.8471V30.124H25.1033V29.7521ZM26.5909 29.7521H27.3347V30.124H26.5909V29.7521ZM28.0785 29.7521H28.8223V30.124H28.0785V29.7521ZM29.5661 29.7521H30.124V30.3099H29.7521V30.124H29.5661V29.7521ZM30.124 31.0537V31.7975H29.7521V31.0537H30.124ZM14.876 31.7975V31.0537H15.2479V31.7975H14.876ZM30.124 32.5413V33.2851H29.7521V32.5413H30.124ZM14.876 33.2851V32.5413H15.2479V33.2851H14.876ZM30.124 34.0289V34.7727H29.7521V34.0289H30.124ZM14.876 34.7727V34.0289H15.2479V34.7727H14.876ZM30.124 35.5165V36.2603H29.7521V35.5165H30.124ZM14.876 36.2603V35.5165H15.2479V36.2603H14.876ZM30.124 37.0041V37.7479H29.7521V37.0041H30.124ZM14.876 37.7479V37.0041H15.2479V37.7479H14.876ZM30.124 38.4917V39.2355H29.7521V38.4917H30.124ZM14.876 39.2355V38.4917H15.2479V39.2355H14.876ZM30.124 39.9793V40.7231H29.7521V39.9793H30.124ZM14.876 40.7231V39.9793H15.2479V40.7231H14.876ZM30.124 41.4669V42.2107H29.7521V41.4669H30.124ZM14.876 42.2107V41.4669H15.2479V42.2107H14.876ZM30.124 42.9545V43.6983H29.7521V42.9545H30.124ZM14.876 43.6983V42.9545H15.2479V43.6983H14.876ZM29.7521 44.6281V44.4421H30.124V45H29.5661V44.6281H29.7521ZM14.876 44.4421H15.2479L15.2479 44.6281H15.4339V45H14.876V44.4421ZM16.9215 45H16.1777V44.6281H16.9215V45ZM18.4091 45H17.6653V44.6281H18.4091V45ZM19.8967 45H19.1529V44.6281H19.8967V45ZM21.3843 45H20.6405V44.6281H21.3843V45ZM22.8719 45H22.1281V44.6281H22.8719V45ZM24.3595 45H23.6157V44.6281H24.3595V45ZM25.8471 45H25.1033V44.6281H25.8471V45ZM27.3347 45H26.5909V44.6281H27.3347V45ZM28.8223 45H28.0785V44.6281H28.8223V45Z" fill="#DFEAF3"/>
<path fill-rule="evenodd" clip-rule="evenodd" d="M29.7521 29.7521H30.3099V30.124H30.124V30.3099H29.7521V29.7521ZM31.0537 29.7521H31.7975V30.124H31.0537V29.7521ZM32.5413 29.7521H33.2851V30.124H32.5413V29.7521ZM34.0289 29.7521H34.7727V30.124H34.0289V29.7521ZM35.5165 29.7521H36.2603V30.124H35.5165V29.7521ZM37.0041 29.7521H37.7479V30.124H37.0041V29.7521ZM38.4917 29.7521H39.2355V30.124H38.4917V29.7521ZM39.9793 29.7521H40.7231V30.124H39.9793V29.7521ZM41.4669 29.7521H42.2107V30.124H41.4669V29.7521ZM42.9545 29.7521H43.6983V30.124H42.9545V29.7521ZM44.4422 29.7521H45V30.3099H44.6281V30.124H44.4422V29.7521ZM45 31.0537V31.7975H44.6281V31.0537H45ZM29.7521 31.7975V31.0537H30.124V31.7975H29.7521ZM45 32.5413V33.2851H44.6281V32.5413H45ZM29.7521 33.2851V32.5413H30.124V33.2851H29.7521ZM45 34.0289V34.7727H44.6281V34.0289H45ZM29.7521 34.7727V34.0289H30.124V34.7727H29.7521ZM45 35.5165V36.2603H44.6281V35.5165H45ZM29.7521 36.2603V35.5165H30.124V36.2603H29.7521ZM45 37.0041V37.7479H44.6281V37.0041H45ZM29.7521 37.7479V37.0041H30.124V37.7479H29.7521ZM45 38.4917V39.2355H44.6281V38.4917H45ZM29.7521 39.2355V38.4917H30.124V39.2355H29.7521ZM45 39.9793V40.7231H44.6281V39.9793H45ZM29.7521 40.7231V39.9793H30.124V40.7231H29.7521ZM45 41.4669V42.2107H44.6281V41.4669H45ZM29.7521 42.2107V41.4669H30.124V42.2107H29.7521ZM45 42.9545V43.6983H44.6281V42.9545H45ZM29.7521 43.6983V42.9545H30.124V43.6983H29.7521ZM44.6281 44.6281V44.4421H45V45H44.4422V44.6281H44.6281ZM29.7521 44.4421H30.124V44.6281H30.3099V45H29.7521V44.4421ZM31.7975 45H31.0537V44.6281H31.7975V45ZM33.2851 45H32.5413V44.6281H33.2851V45ZM34.7727 45H34.0289V44.6281H34.7727V45ZM36.2603 45H35.5165V44.6281H36.2603V45ZM37.7479 45H37.0041V44.6281H37.7479V45ZM39.2355 45H38.4917V44.6281H39.2355V45ZM40.7231 45H39.9793V44.6281H40.7231V45ZM42.2107 45H41.4669V44.6281H42.2107V45ZM43.6983 45H42.9545V44.6281H43.6983V45Z" fill="#DFEAF3"/>
</svg>
